#!OML:ASF H:\ManfredObstacles\Project 1\Capture day 2\Session 1\male.ASF
:FULLY-SPECIFIED
:DEGREES
191
root 1.56912 15.7739 -23.4079 -175.034 7.70973 -178.948
lowerback -3.92015 2.40782 -0.775553
upperback 0.906317 3.29007 -0.951175
thorax 3.1405 1.63726 -0.327313
lowerneck -32.9658 -1.17595 3.3409
upperneck 43.0463 0.160092 -0.867541
head 25.5204 1.69203 -0.570382
rclavicle 9.24349e-015 1.19271e-015
rhumerus -24.9523 1.40078 -89.2843
rradius 44.6108
rwrist 22.3465
rhand -6.38547 -6.84686
rfingers 7.12502
rthumb 19.4618 -35.8929
lclavicle 9.24349e-015 1.19271e-015
lhumerus -135.295 37.1754 -71.2599
lradius 15.5587
lwrist -161.628
lhand -1.81886 6.64684
lfingers 7.12502
lthumb 23.8471 35.1865
rfemur -2.60351 4.12246 27.4036
rtibia 25.7216
rfoot -13.2715 -15.4809
rtoes -16.3517
lfemur -34.7883 1.33011 -17.8125
ltibia 58.0436
lfoot 5.3795 24.4484
ltoes -7.31794
192
root 1.56109 15.7744 -23.6038 -174.964 8.10268 -178.826
lowerback -3.88453 2.57132 -0.574738
upperback 0.8894 3.4966 -0.954826
thorax 3.1157 1.74371 -0.431483
lowerneck -32.9679 -1.17072 3.37407
upperneck 43.0532 0.170818 -0.900775
head 25.5293 1.69891 -0.592678
rclavicle -7.71781e-014 -1.27222e-014
rhumerus -24.0573 2.2977 -89.5098
rradius 46.1622
rwrist 21.4961
rhand -6.44957 -6.83329
rfingers 7.12502
rthumb 19.4001 -35.8855
lclavicle -7.71781e-014 -1.27222e-014
lhumerus -134.585 36.2349 -71.8951
lradius 15.7044
lwrist -162.169
lhand -1.90613 6.54406
lfingers 7.12502
lthumb 23.7634 35.0947
rfemur -1.41872 4.09855 27.3632
rtibia 24.7689
rfoot -13.0677 -15.1047
rtoes -16.825
lfemur -35.0875 1.0708 -17.4257
ltibia 55.1701
lfoot 5.33618 24.9792
ltoes -7.3817
193
root 1.55373 15.7758 -23.8029 -174.877 8.45315 -178.73
lowerback -3.91526 2.72659 -0.414078
upperback 0.889368 3.69575 -0.964703
thorax 3.14492 1.84565 -0.516258
lowerneck -33.0006 -1.18244 3.38526
upperneck 43.0707 0.149508 -0.901369
head 25.5609 1.69609 -0.600862
rclavicle -3.16565e-014 1.59028e-014
rhumerus -23.1873 3.08219 -89.6676
rradius 47.6916
rwrist 20.6725
rhand -6.48288 -6.79715
rfingers 7.12502
rthumb 19.3681 -35.8526
lclavicle -3.16565e-014 1.59028e-014
lhumerus -133.859 35.4826 -72.4163
lradius 15.807
lwrist -162.354
lhand -1.89795 6.49506
lfingers 7.12502
lthumb 23.7713 35.0446
rfemur -0.194265 4.06168 27.2838
rtibia 23.7129
rfoot -12.8159 -14.7054
rtoes -17.367
lfemur -35.2798 0.742347 -17.0367
ltibia 52.1023
lfoot 5.36228 25.4773
ltoes -7.41628
194
root 1.54721 15.7774 -24.0042 -174.76 8.7681 -178.645
lowerback -3.98512 2.8809 -0.285046
upperback 0.877711 3.89561 -0.979224
thorax 3.18354 1.9474 -0.586037
lowerneck -33.0663 -1.21546 3.39176
upperneck 43.1217 0.0930331 -0.880539
head 25.6412 1.68786 -0.604477
rclavicle 1.89839e-014 -1.11319e-014
rhumerus -22.3787 3.74658 -89.7668
rradius 49.198
rwrist 19.9026
rhand -6.48697 -6.75835
rfingers 7.12502
rthumb 19.3642 -35.8142
lclavicle 1.89839e-014 -1.11319e-014
lhumerus -133.119 34.8691 -72.8617
lradius 15.8823
lwrist -162.309
lhand -1.83179 6.48701
lfingers 7.12502
lthumb 23.8347 35.0283
rfemur 1.04505 4.02417 27.1812
rtibia 22.5644
rfoot -12.5158 -14.283
rtoes -17.9584
lfemur -35.399 0.356731 -16.6325
ltibia 48.8769
lfoot 5.4823 25.9146
ltoes -7.40318
195
root 1.54142 15.7788 -24.2083 -174.618 9.04968 -178.578
lowerback -4.10627 3.03161 -0.195246
upperback 0.859297 4.09318 -0.998462
thorax 3.24255 2.0473 -0.63577
lowerneck -33.1424 2.17898 1.13013
upperneck 43.1347 -1.88295 1.2604
head 25.7616 -1.37679 -0.593051
rclavicle 1.90833e-014 -1.59028e-014
rhumerus -21.6286 4.30264 -89.811
rradius 50.6763
rwrist 19.2659
rhand -6.43941 -6.71137
rfingers 7.12502
rthumb 19.4099 -35.7626
lclavicle 1.90833e-014 -1.59028e-014
lhumerus -132.41 34.3483 -73.2881
lradius 15.9482
lwrist -162.149
lhand -1.7262 6.51216
lfingers 7.12502
lthumb 23.936 35.0402
rfemur 2.30106 3.98329 27.0494
rtibia 21.3358
rfoot -12.1557 -13.8393
rtoes -18.6096
lfemur -35.4443 -0.106001 -16.2165
ltibia 45.5347
lfoot 5.68947 26.3189
ltoes -7.4023
196
root 1.53612 15.7793 -24.4149 -174.456 9.30682 -178.521
lowerback -4.2602 3.18575 -0.12584
upperback 0.818481 4.2969 -1.03153
thorax 3.29724 2.15007 -0.68597
lowerneck -33.1566 2.13644 1.10855
upperneck 43.1882 -2.0173 1.34811
head 25.8322 -1.41764 -0.581773
rclavicle 2.35063e-014 5.96354e-015
rhumerus -20.9623 4.74669 -89.8253
rradius 52.1165
rwrist 18.7461
rhand -6.34212 -6.66675
rfingers 7.12502
rthumb 19.5034 -35.7085
lclavicle 2.35063e-014 5.96354e-015
lhumerus -131.688 33.9279 -73.6755
lradius 16.0088
lwrist -161.887
lhand -1.56829 6.54648
lfingers 7.12502
lthumb 24.0874 35.0546
rfemur 3.57308 3.94819 26.8999
rtibia 20.0363
rfoot -11.7302 -13.3867
rtoes -19.3261
lfemur -35.4349 -0.643498 -15.78
ltibia 42.134
lfoot 6.05635 26.6635
ltoes -7.45208
197
root 1.53124 15.7785 -24.624 -174.279 9.54409 -178.473
lowerback -4.44484 3.34039 -0.0763703
upperback 0.757536 4.50288 -1.07613
thorax 3.34848 2.25375 -0.73469
lowerneck -33.1418 2.08869 1.09059
upperneck 43.2472 -2.18238 1.45753
head 25.8988 -1.46725 -0.568437
rclavicle -8.89561e-015 -3.97569e-015
rhumerus -20.39 5.07147 -89.8165
rradius 53.5187
rwrist 18.4289
rhand -6.17245 -6.58764
rfingers 7.12502
rthumb 19.6666 -35.6128
lclavicle -8.89561e-015 -3.97569e-015
lhumerus -131.01 33.5514 -74.1108
lradius 16.0728
lwrist -161.628
lhand -1.38246 6.59181
lfingers 7.12502
lthumb 24.2656 35.0762
rfemur 4.86929 3.93079 26.7402
rtibia 18.6663
rfoot -11.2317 -12.9327
rtoes -20.0877
lfemur -35.38 -1.27013 -15.3111
ltibia 38.7403
lfoot 6.43749 27.0417
ltoes -7.52072
198
root 1.52667 15.7761 -24.835 -174.087 9.76647 -178.42
lowerback -4.6463 3.49344 -0.0373357
upperback 0.671754 4.70749 -1.12609
thorax 3.38369 2.35669 -0.782101
lowerneck -33.1248 2.03558 1.07394
upperneck 43.3159 -2.37381 1.58271
head 25.9778 -1.52481 -0.555044
rclavicle -2.98177e-016 -4.37326e-015
rhumerus -19.9068 5.33172 -89.8002
rradius 54.874
rwrist 18.2217
rhand -5.97799 -6.5021
rfingers 7.12502
rthumb 19.8535 -35.5081
lclavicle -2.98177e-016 -4.37326e-015
lhumerus -130.327 33.2429 -74.5149
lradius 16.1356
lwrist -161.309
lhand -1.16158 6.63173
lfingers 7.12502
lthumb 24.4773 35.0877
rfemur 6.19556 3.953 26.591
rtibia 17.2107
rfoot -10.6344 -12.4869
rtoes -20.8756
lfemur -35.3141 -1.99039 -14.7873
ltibia 35.4418
lfoot 6.82707 27.4707
ltoes -7.61154
199
root 1.52222 15.772 -25.0487 -173.888 9.97209 -178.364
lowerback -4.87285 3.64463 -0.00761417
upperback 0.570988 4.91065 -1.18064
thorax 3.4176 2.45885 -0.827061
lowerneck -33.0997 1.9706 1.04591
upperneck 43.382 -2.5915 1.72941
head 26.0537 -1.59096 -0.534742
rclavicle -9.44227e-016 2.22639e-014
rhumerus -19.5132 5.55082 -89.7752
rradius 56.1911
rwrist 18.0728
rhand -5.80555 -6.40058
rfingers 7.12502
rthumb 20.0193 -35.3893
lclavicle -9.44227e-016 2.22639e-014
lhumerus -129.613 33.0325 -74.8286
lradius 16.1811
lwrist -160.849
lhand -0.911932 6.67753
lfingers 7.12502
lthumb 24.7166 35.1009
rfemur 7.57289 4.00513 26.4476
rtibia 15.652
rfoot -9.9405 -12.0402
rtoes -21.6911
lfemur -35.2595 -2.81072 -14.2078
ltibia 32.3352
lfoot 7.1377 27.9875
ltoes -7.72672
200
root 1.51749 15.7657 -25.2653 -173.683 10.1592 -178.291
lowerback -5.11453 3.79481 0.0325476
upperback 0.463058 5.11181 -1.23017
thorax 3.45346 2.5602 -0.870961
lowerneck -33.1081 1.88908 0.985705
upperneck 43.4548 -2.83077 1.8981
head 26.1566 -1.66708 -0.502247
rclavicle -1.15792e-014 -9.14409e-015
rhumerus -19.1967 5.75749 -89.7341
rradius 57.4749
rwrist 17.9631
rhand -5.67623 -6.33772
rfingers 7.12502
rthumb 20.1436 -35.3134
lclavicle -1.15792e-014 -9.14409e-015
lhumerus -128.945 32.8689 -75.1389
lradius 16.2262
lwrist -160.358
lhand -0.678031 6.724
lfingers 7.12502
lthumb 24.9408 35.1165
rfemur 9.02197 4.08916 26.3246
rtibia 13.9668
rfoot -9.15677 -11.5847
rtoes -22.4836
lfemur -35.252 -3.70989 -13.5665
ltibia 29.5323
lfoot 7.28685 28.6134
ltoes -7.77927
201
root 1.5122 15.7571 -25.4853 -173.488 10.3299 -178.224
lowerback -5.38745 3.94208 0.0679723
upperback 0.373448 5.31006 -1.28142
thorax 3.52593 2.66001 -0.909984
lowerneck -33.1461 1.798 0.902605
upperneck 43.5335 -3.08481 2.0853
head 26.2847 -1.74956 -0.459105
rclavicle -1.15792e-014 -2.78299e-015
rhumerus -18.9191 5.96118 -89.6808
rradius 58.7188
rwrist 17.8447
rhand -5.60977 -6.31717
rfingers 7.12502
rthumb 20.2074 -35.2861
lclavicle -1.15792e-014 -2.78299e-015
lhumerus -128.375 32.7477 -75.4857
lradius 16.2517
lwrist -159.792
lhand -0.449781 6.80473
lfingers 7.12502
lthumb 25.1595 35.1667
rfemur 10.5685 4.18168 26.1916
rtibia 12.1289
rfoot -8.26261 -11.0957
rtoes -23.2859
lfemur -35.306 -4.66439 -12.9104
ltibia 27.1329
lfoot 7.29316 29.3353
ltoes -7.82595
